<svg id="Layer_2" data-name="Layer 2" xmlns="http://www.w3.org/2000/svg" viewBox="0 0 926.39 75.85"><defs><style>.cls-1{fill:#fff;}</style></defs><title>BoldLogo DarkBG</title><path class="cls-1" d="M137.62,268.51h11.61a1,1,0,0,1,1,1v59.28a1,1,0,0,0,1,1h35.21a1,1,0,0,1,1,1V342.1a1,1,0,0,1-1,1H137.62a1,1,0,0,1-1-1V269.51A1,1,0,0,1,137.62,268.51Z" transform="translate(-53.53 -267.94)"/><path class="cls-1" d="M234.9,290l6.95,11.89c6.44-11.12,12.66-21.88,19.18-33.15,8.16,14.09,16.08,27.79,24.26,41.91l5.24-8.78,19.61,38.63H205.87Zm25.36-6.38c.37.21.61.27.69.4q1.32,2.31,2.59,4.64c1.9,3.46,1.92,3.5,5.5,2.1,1-.4,1.56-.35,1.89.8a25.33,25.33,0,0,0,1.47,4.07c.3.62,1.07,1,1.63,1.5l.59-.57c-4.46-7.7-8.92-15.4-13.59-23.48l-11.84,20.49.34.24,6.06-5.8c.59,4.13,1.09,7.62,1.6,11.11l.45,0Z" transform="translate(-53.53 -267.94)"/><path d="M260.18,283.76l-2.59,15.37-.46,0c-.49-3.47-1-6.94-1.58-11l-6,5.77-.34-.24L261,273.28l13.5,23.34-.58.56c-.55-.49-1.32-.88-1.62-1.49a25.94,25.94,0,0,1-1.46-4c-.33-1.15-.86-1.19-1.88-.8-3.56,1.39-3.57,1.36-5.46-2.09-.85-1.54-1.7-3.07-2.58-4.6C260.79,284,260.56,284,260.18,283.76Z" transform="translate(-53.53 -267.94)"/><path class="cls-1" d="M329.86,271.05v71a1,1,0,0,0,1.49.87l11.46-6.35a1,1,0,0,0,.52-.88V300.25a1,1,0,0,1,1.67-.74l46.11,42.7a1,1,0,0,0,1.68-.74V270.92a1,1,0,0,0-1.64-.77l-10.88,9.07a1,1,0,0,0-.36.77v32.24a1,1,0,0,1-1.67.74l-46.7-42.66A1,1,0,0,0,329.86,271.05Z" transform="translate(-53.53 -267.94)"/><path class="cls-1" d="M419.86,271.05v71a1,1,0,0,0,1.49.87l11.46-6.35a1,1,0,0,0,.52-.88V300.25a1,1,0,0,1,1.67-.74l46.11,42.7a1,1,0,0,0,1.68-.74V270.92a1,1,0,0,0-1.64-.77l-10.88,9.07a1,1,0,0,0-.36.77v32.24a1,1,0,0,1-1.67.74l-46.7-42.66A1,1,0,0,0,419.86,271.05Z" transform="translate(-53.53 -267.94)"/><rect class="cls-1" x="455.6" y="29.87" width="45.95" height="16.32"/><rect class="cls-1" x="455.6" y="62.29" width="51.37" height="13.39"/><rect class="cls-1" x="455.49" y="0.61" width="51.15" height="15.8" rx="1"/><rect class="cls-1" x="720.77" y="29.27" width="45.95" height="16.32"/><rect class="cls-1" x="720.77" y="61.68" width="51.37" height="13.39"/><rect class="cls-1" x="720.66" width="51.15" height="15.8" rx="1"/><path class="cls-1" d="M588,268.54h36.76l.2,0c1.43.31,18.23,4.28,18.23,24.35,0,16.65-9.76,19-13.78,19.22a1,1,0,0,0-.79,1.51l17,28.47a1,1,0,0,1-.86,1.51H630.78a1,1,0,0,1-.88-.51L614,314.64a1,1,0,0,0-.87-.51H588a1,1,0,0,1-1-1V301.59a1,1,0,0,1,1-1h35.22s6.58,1.21,6.58-9.33c0-10-7.89-8.93-8.71-8.79H588a1,1,0,0,1-1-1V269.54A1,1,0,0,1,588,268.54Z" transform="translate(-53.53 -267.94)"/><path class="cls-1" d="M54.53,268.51H94.39a.84.84,0,0,1,.27,0c1.71.48,18.13,5.59,18.13,21.85S94.61,313,92.73,313.63a.84.84,0,0,1-.31.05H68.06a1,1,0,0,0-1,1V342.1a1,1,0,0,1-1,1H54.53a1,1,0,0,1-1-1V298.93a1,1,0,0,1,1-1H93.2a1,1,0,0,0,.41-.09c1.34-.61,8.83-4.55.38-13.27a1.06,1.06,0,0,0-.73-.31H54.53a1,1,0,0,1-1-1V269.51A1,1,0,0,1,54.53,268.51Z" transform="translate(-53.53 -267.94)"/><path class="cls-1" d="M696.59,269.2h39.86a1.24,1.24,0,0,1,.27,0c1.71.49,18.13,5.59,18.13,21.85s-18.18,22.62-20.06,23.24a1.12,1.12,0,0,1-.31.05H710.12a1,1,0,0,0-1,1v27.42a1,1,0,0,1-1,1H696.59a1,1,0,0,1-1-1V299.61a1,1,0,0,1,1-1h38.67a1,1,0,0,0,.41-.08c1.34-.61,8.83-4.56.38-13.27a1,1,0,0,0-.73-.31H696.59a1,1,0,0,1-1-1V270.2A1,1,0,0,1,696.59,269.2Z" transform="translate(-53.53 -267.94)"/><polygon class="cls-1" points="829.21 1.26 791.01 75.07 807.7 75.07 829.21 29.88 850.28 75.07 866.96 75.07 829.21 1.26"/><polygon class="cls-1" points="905.6 1.26 875.74 37.43 905.6 75.07 926.39 75.85 895.06 37.48 923.95 1.26 905.6 1.26"/></svg>