<svg id="Layer_2" data-name="Layer 2" xmlns="http://www.w3.org/2000/svg" viewBox="0 0 946.78 73"><defs><style>.cls-1{fill:#fff;}</style></defs><title>ThinLogo DarkBG</title><path class="cls-1" d="M195.84,288.67l7,11.89L222,267.41l24.25,41.91,5.25-8.78,19.61,38.63H166.82C176.53,322.28,186.05,305.72,195.84,288.67Zm25.36-6.38c.38.21.62.27.7.4.87,1.54,1.74,3.09,2.59,4.64,1.9,3.46,1.91,3.5,5.5,2.1,1-.4,1.56-.35,1.89.8a25.33,25.33,0,0,0,1.47,4.07c.3.62,1.07,1,1.63,1.5l.58-.57c-4.45-7.7-8.91-15.4-13.59-23.48l-11.83,20.49.34.24,6.06-5.8,1.59,11.11.46,0Z" transform="translate(-26.39 -267.41)"/><path d="M221.2,282.29l-2.59,15.37-.46,0c-.49-3.47-1-6.94-1.58-11l-6,5.77-.34-.24L222,271.82l13.5,23.33-.58.56c-.55-.49-1.32-.87-1.62-1.49a25,25,0,0,1-1.46-4c-.33-1.15-.86-1.19-1.88-.8-3.56,1.4-3.57,1.36-5.46-2.08-.85-1.55-1.71-3.08-2.58-4.61C221.81,282.55,221.58,282.5,221.2,282.29Z" transform="translate(-26.39 -267.41)"/><path class="cls-1" d="M26.39,268.19l27.41-.09s27.42,2.25,27.42,22.44-13,26-24.34,26h-25v23.69H26.79V311.62H56.34s19.46-.07,19.46-19.36-22-19.2-22-19.2H26.39Z" transform="translate(-26.39 -267.41)"/><path class="cls-1" d="M670.48,268.19l27.41-.09s27.41,2.25,27.41,22.44-13,26-24.34,26H676v23.69h-5.14V311.62h29.55s19.47-.07,19.47-19.36-22-19.2-22-19.2H670.48Z" transform="translate(-26.39 -267.41)"/><polygon class="cls-1" points="82.35 0.69 87.76 0.69 87.76 68.01 129.18 68.01 129.18 72.86 82.35 72.86 82.35 0.69"/><polygon class="cls-1" points="267.03 72.69 267.03 0.26 272.59 0.26 320.3 62.16 320.3 0.26 326.59 0.26 326.59 72.69 321.47 72.69 273.18 10.65 273.18 72.69 267.03 72.69"/><polygon class="cls-1" points="360.83 72.69 360.83 0.26 366.39 0.26 414.1 62.16 414.1 0.26 420.39 0.26 420.39 72.69 415.27 72.69 366.98 10.65 366.98 72.69 360.83 72.69"/><rect class="cls-1" x="454.2" y="0.26" width="46.98" height="5.41"/><rect class="cls-1" x="454.2" y="33.17" width="39.8" height="5.41"/><rect class="cls-1" x="454.2" y="67.28" width="46.98" height="5.41"/><rect class="cls-1" x="727.27" y="0.56" width="46.98" height="5.41"/><rect class="cls-1" x="727.27" y="33.48" width="39.8" height="5.41"/><rect class="cls-1" x="727.27" y="67.58" width="46.98" height="5.41"/><path class="cls-1" d="M560.14,268.19l27.41-.09S615,270.35,615,290.54c0,15.52-7.68,22.57-16.39,25a30.07,30.07,0,0,1-7.94,1h-25v23.69h-5.14V311.62h29.56s19.46-.07,19.46-19.36-22-19.2-22-19.2H560.14Z" transform="translate(-26.39 -267.41)"/><polygon class="cls-1" points="589.64 72.69 572.17 48.12 567.03 49.04 583.16 72.86 589.64 72.69"/><polygon class="cls-1" points="826.05 0.69 793.13 72.86 798.83 72.86 829.13 7.28 858.98 72.86 865.13 73 832.42 0.56 826.05 0.69"/><polygon class="cls-1" points="893.44 0.69 887.96 0.69 887.96 73 893.44 73 893.44 54.11 909.32 37.87 939.61 73 946.78 73 912.98 33.33 944.44 0.55 937.13 0.56 893.52 46.5 893.44 0.69"/></svg>